<svg width="128" height="128" viewBox="0 0 128 128" fill="none" xmlns="http://www.w3.org/2000/svg">
<g clip-path="url(#clip0_6_3)">
<path d="M0 28.4445C0 12.735 12.735 0 28.4445 0H99.5555C115.265 0 128 12.735 128 28.4445V99.5555C128 115.265 115.265 128 99.5555 128H28.4445C12.735 128 0 115.265 0 99.5555V28.4445Z" fill="#00C471"/>
<path d="M78.6176 40.9411V55.0019C70.5295 55.0019 64.0003 61.2823 64.0003 69.0627H49.749C49.5468 69.0627 49.3827 68.9036 49.3853 68.709C49.5828 53.3577 62.6127 40.9411 78.6176 40.9411Z" fill="#FDFDFD"/>
<path d="M107.852 69.0627H93.2349C93.2349 61.2823 86.7058 55.0019 78.6176 55.0019V40.9411C94.7453 40.9411 107.852 53.5491 107.852 69.0627Z" fill="#FDFDFD"/>
<path d="M78.6176 97.1843V83.1235C86.7058 83.1235 93.2349 76.843 93.2349 69.0627H107.852C107.852 84.6234 94.7453 97.1843 78.6176 97.1843Z" fill="#FDFDFD"/>
<path d="M49.383 97.1843V83.1235C57.4711 83.1235 64.0003 76.843 64.0003 69.0627H78.2516C78.4538 69.0627 78.6179 69.2221 78.6153 69.4164C78.4183 84.8134 65.3882 97.1843 49.383 97.1843Z" fill="#FDFDFD"/>
<path d="M20.1484 69.0627H34.7657C34.7657 76.843 41.2948 83.1235 49.383 83.1235V97.1843C33.2553 97.1843 20.1484 84.6234 20.1484 69.0627Z" fill="#FDFDFD"/>
<path d="M49.383 40.9411V55.0019C41.2948 55.0019 34.7657 61.2823 34.7657 69.0627H20.1484C20.1484 53.5491 33.2553 40.9411 49.383 40.9411Z" fill="#FDFDFD"/>
<path d="M63.4514 21.6846C63.4514 21.4901 63.6151 21.3324 63.8173 21.3324H78.2109C78.4131 21.3324 78.5769 21.4901 78.5769 21.6846V37.7708C78.5769 37.9654 78.4128 38.1231 78.2109 38.1251C73.1209 38.1769 68.2999 39.3082 63.9831 41.2922C63.7376 41.4051 63.4514 41.2343 63.4514 40.9725V21.6846Z" fill="#FDFDFD"/>
<path d="M60.6054 43.333C60.7066 43.2672 60.7677 43.1572 60.7677 43.0397V41.2934C60.7677 41.0988 60.6039 40.9411 60.4017 40.9411H49.0577V55.0057H49.4964C49.726 55.0057 49.9357 54.8815 50.0422 54.6857C52.5347 50.1033 56.1789 46.2159 60.6054 43.333Z" fill="#FDFDFD"/>
<path d="M67.2733 94.7924C67.1721 94.8582 67.1107 94.9681 67.1107 95.0857V96.832C67.1107 97.0266 67.2748 97.1843 67.4767 97.1843H78.8209V83.122H78.382C78.1527 83.122 77.943 83.2463 77.8365 83.442C75.344 88.0242 71.6995 91.9098 67.2733 94.7924Z" fill="#FDFDFD"/>
</g>
<defs>
<clipPath id="clip0_6_3">
<rect width="128" height="128" fill="white"/>
</clipPath>
</defs>
</svg>
