<svg width="36" height="36" viewBox="0 0 36 36" fill="none" xmlns="http://www.w3.org/2000/svg">
  <g clip-path="url(#clip0_6_3)">
    <path d="M0 8C0 3.58172 3.58172 0 8 0H28C32.4182 0 36 3.58172 36 8V28C36 32.4182 32.4182 36 28 36H8C3.58172 36 0 32.4182 0 28V8Z" fill="#00C471"/>
    <path d="M22.1112 11.5147V15.4693C19.8364 15.4693 18.0001 17.2357 18.0001 19.4239H13.9919C13.935 19.4239 13.8889 19.3791 13.8896 19.3244C13.9452 15.0068 17.6098 11.5147 22.1112 11.5147Z" fill="#FDFDFD"/>
    <path d="M30.3334 19.4239H26.2223C26.2223 17.2357 24.386 15.4693 22.1112 15.4693V11.5147C26.6471 11.5147 30.3334 15.0607 30.3334 19.4239Z" fill="#FDFDFD"/>
    <path d="M22.1112 27.3331V23.3785C24.386 23.3785 26.2223 21.6121 26.2223 19.4239H30.3334C30.3334 23.8003 26.6471 27.3331 22.1112 27.3331Z" fill="#FDFDFD"/>
    <path d="M13.889 27.3331V23.3785C16.1638 23.3785 18.0001 21.6121 18.0001 19.4239H22.0083C22.0651 19.4239 22.1113 19.4687 22.1106 19.5234C22.0552 23.8538 18.3905 27.3331 13.889 27.3331Z" fill="#FDFDFD"/>
    <path d="M5.66675 19.4239H9.77784C9.77784 21.6121 11.6142 23.3785 13.889 23.3785V27.3331C9.35304 27.3331 5.66675 23.8003 5.66675 19.4239Z" fill="#FDFDFD"/>
    <path d="M13.889 11.5147V15.4693C11.6142 15.4693 9.77784 17.2357 9.77784 19.4239H5.66675C5.66675 15.0607 9.35304 11.5147 13.889 11.5147Z" fill="#FDFDFD"/>
    <path d="M17.8457 6.09879C17.8457 6.04408 17.8918 5.99973 17.9486 5.99973H21.9968C22.0537 5.99973 22.0998 6.04408 22.0998 6.09879V10.623C22.0998 10.6778 22.0536 10.7221 21.9968 10.7227C20.5653 10.7372 19.2094 11.0554 17.9953 11.6134C17.9262 11.6452 17.8457 11.5971 17.8457 11.5235V6.09879Z" fill="#FDFDFD"/>
    <path d="M17.0453 12.1874C17.0737 12.1689 17.0909 12.138 17.0909 12.1049V11.6138C17.0909 11.559 17.0448 11.5147 16.988 11.5147H13.7975V15.4703H13.9209C13.9854 15.4703 14.0444 15.4354 14.0744 15.3803C14.7754 14.0915 15.8003 12.9982 17.0453 12.1874Z" fill="#FDFDFD"/>
    <path d="M18.9206 26.6604C18.8921 26.6789 18.8749 26.7098 18.8749 26.7429V27.234C18.8749 27.2887 18.921 27.3331 18.9778 27.3331H22.1684V23.3781H22.0449C21.9805 23.3781 21.9215 23.413 21.8915 23.4681C21.1905 24.7568 20.1655 25.8496 18.9206 26.6604Z" fill="#FDFDFD"/>
  </g>
  <defs>
    <clipPath id="clip0_6_3">
      <rect width="36" height="36" fill="white"/>
    </clipPath>
  </defs>
</svg>
